PathFileType	4	(X/Y/Z)	 s02c0302.trc
DataRate	CameraRate	NumFrames	NumMarkers	Units	OrigDataRate	OrigDataStartFrame	OrigNumFrames
200	200	5	51	mm	200	1251	2000
Frame#	Time	racr			lacr			c7			jug			rlel			rdr			llel			ldr			s2			lic			ric			lasi			rasi			rpsi			lpsi			rgt			lgt			rth1			rth2			rth3			rth4			rlfc			rmfc			rsh1			rsh2			rsh3			rsh4			rlmal			rmmal			rcal			rtoe			rmt5			rmt1			lth1			lth2			lth4			lth3			llfc			lmfc			lsh1			lsh2			lsh3			lsh4			llmal			lmmal			lcal			ltoe			lmt5			SBIKE			LBIKE			RBIKE			
		X1	Y1	Z1	X2	Y2	Z2	X3	Y3	Z3	X4	Y4	Z4	X5	Y5	Z5	X6	Y6	Z6	X7	Y7	Z7	X8	Y8	Z8	X9	Y9	Z9	X10	Y10	Z10	X11	Y11	Z11	X12	Y12	Z12	X13	Y13	Z13	X14	Y14	Z14	X15	Y15	Z15	X16	Y16	Z16	X17	Y17	Z17	X18	Y18	Z18	X19	Y19	Z19	X20	Y20	Z20	X21	Y21	Z21	X22	Y22	Z22	X23	Y23	Z23	X24	Y24	Z24	X25	Y25	Z25	X26	Y26	Z26	X27	Y27	Z27	X28	Y28	Z28	X29	Y29	Z29	X30	Y30	Z30	X31	Y31	Z31	X32	Y32	Z32	X33	Y33	Z33	X34	Y34	Z34	X35	Y35	Z35	X36	Y36	Z36	X37	Y37	Z37	X38	Y38	Z38	X39	Y39	Z39	X40	Y40	Z40	X41	Y41	Z41	X42	Y42	Z42	X43	Y43	Z43	X44	Y44	Z44	X45	Y45	Z45	X46	Y46	Z46	X47	Y47	Z47	X48	Y48	Z48	X49	Y49	Z49	X50	Y50	Z50	X51	Y51	Z51	
1251	6.2550	688.889533	1250.475814	-60.640008	765.635703	1205.921508	-395.663200	728.271317	1266.410443	-231.281078	657.015084	1143.347022	-223.369661	606.593612	994.647357	0.940191	728.445525	853.180841	-98.773447	647.982524	1044.292929	-601.700484	733.792768	860.537627	-513.208124	197.558857	1194.743519	-347.876138	342.794163	1139.725053	-463.906387	295.172322	1191.967577	-176.156221	370.071661	1100.376170	-423.974964	346.610713	1159.954057	-199.970113	211.033314	1225.255049	-308.620384	237.803524	1220.884425	-391.067914	268.572053	1127.774280	-136.604290	262.129529	1059.392214	-488.114538	354.763316	1093.359276	-129.867054	439.062236	1067.060601	-130.513618	498.794737	1013.643593	-101.016043	455.171656	1087.297970	-158.938685	609.052455	911.689436	-129.417070	601.118777	889.206312	-243.591697	565.231240	809.590073	-115.122538	524.051864	732.476239	-131.748227	451.440382	684.756417	-128.882590	535.934801	725.246280	-169.266185	359.810178	595.986214	-135.436997	372.341722	613.828222	-215.015010	270.587224	591.311294	-172.970738	512.458035	441.211385	-193.670966	414.127020	478.997556	-123.696241	438.124761	481.259248	-233.466027	321.429418	935.517327	-503.116391	357.758688	856.248880	-503.514641	391.094338	861.823927	-489.782644	348.053252	767.928391	-506.532009	363.451840	669.894658	-487.613701	362.254886	637.525215	-388.251422	318.452194	577.978937	-511.147572	303.094394	494.069195	-497.459421	244.513359	424.871626	-499.325028	322.931151	487.510001	-462.153013	192.450541	333.483510	-486.317092	205.458858	325.742449	-409.827585	118.073099	337.666503	-444.612307	309.110536	120.847863	-436.609094	220.355356	178.978714	-502.107897	-126.361168	872.562191	-307.628944	37.169328	86.913338	-514.254518	33.032800	84.231254	-114.169795	
1252	6.2600	687.628578	1246.100456	-57.508830	766.592678	1204.936501	-392.253517	728.487383	1264.269648	-227.751649	655.979417	1141.431605	-221.719951	601.860175	991.717363	0.669334	727.364456	853.473221	-98.510615	651.655130	1045.314259	-601.359194	734.115177	860.298490	-513.083101	198.487969	1198.059709	-349.160111	343.420699	1143.129915	-464.958162	294.979477	1192.819806	-176.950736	370.402808	1102.810829	-425.573059	346.377776	1160.856238	-200.799596	212.366680	1228.510331	-310.326722	237.806043	1225.715358	-390.867765	267.492094	1128.699495	-138.625279	262.589972	1062.574068	-489.662032	353.408482	1092.566967	-129.559394	437.009939	1064.488596	-130.121540	495.353577	1010.144619	-99.691018	453.918363	1085.004384	-157.191110	603.566850	905.917945	-126.854505	597.439040	884.362664	-241.446216	561.530755	803.924246	-113.297886	521.153319	727.201404	-129.584203	449.964821	676.783655	-127.875037	534.186371	718.153711	-167.866633	359.714674	587.093486	-135.079773	372.452279	604.672207	-214.875075	271.537618	577.680545	-172.440828	520.709140	440.556894	-193.001270	420.906814	471.765381	-123.309665	444.513002	476.877928	-232.776364	323.918948	938.572897	-503.906288	361.664489	859.993103	-504.436039	394.830333	866.303970	-490.668059	353.703699	771.710992	-507.540852	369.772739	673.347762	-489.001075	368.956174	641.007185	-389.371835	323.186870	582.057911	-512.089743	305.271686	498.579405	-498.258997	244.754856	431.116704	-500.269268	324.797564	491.557176	-462.899504	189.048941	341.140527	-487.260755	202.353065	332.719546	-410.580461	114.965194	347.088999	-444.710682	299.702356	125.278608	-436.584050	212.371687	185.614912	-502.259772	-126.211222	872.673225	-307.244646	37.184544	87.013243	-514.256105	33.036517	84.191607	-114.083989	
1253	6.2650	686.520902	1241.742164	-54.514789	767.426326	1204.088780	-389.356194	728.445575	1261.949638	-224.620164	655.577309	1139.027840	-220.162383	596.972813	988.884810	-0.151675	726.332929	853.732769	-98.492951	655.115955	1046.160978	-601.047474	734.250023	861.135598	-514.555174	199.367036	1201.761442	-349.822686	344.181816	1146.217030	-465.675120	294.735456	1193.140245	-177.554351	370.821491	1105.198417	-427.026083	346.286113	1161.129848	-201.214032	212.999583	1232.288912	-311.300143	238.558292	1229.931695	-390.989360	266.622233	1129.213088	-140.159490	263.401933	1065.712746	-491.328269	351.739591	1090.795708	-129.563990	434.871130	1061.039683	-129.612014	491.939530	1005.960451	-98.592939	452.515075	1081.557004	-156.239002	598.187845	899.475520	-125.447443	593.104025	878.580121	-239.145081	557.099793	797.008426	-111.149306	518.367612	719.461455	-128.152926	448.140492	667.479397	-127.183550	530.964146	711.090779	-166.688513	360.930625	576.380028	-135.251870	371.467065	594.972722	-215.216191	272.671705	563.166291	-172.493826	528.195280	439.364026	-192.262992	426.308398	465.444202	-122.356862	450.266575	471.791286	-231.959216	326.923791	941.924456	-505.364240	366.069922	863.896587	-505.038797	399.053657	870.822147	-491.253171	359.863757	775.475264	-508.329075	376.696548	676.908838	-490.124176	376.122239	644.354121	-390.402380	328.504041	586.022794	-512.988984	307.823848	503.278795	-498.864285	245.267563	437.821408	-501.130926	326.950906	495.793868	-463.402494	185.687453	349.055212	-488.147423	202.453136	337.274049	-413.068082	111.686847	356.508650	-444.874185	290.834752	130.667471	-436.459727	204.776053	192.502106	-502.240927	-126.033847	872.831198	-306.796627	37.192259	87.294995	-514.153392	33.059481	84.215044	-114.028003	
1254	6.2700	685.557358	1237.515605	-51.843583	768.289518	1203.399627	-386.773146	728.651161	1259.904253	-222.077224	655.119429	1136.980612	-219.049695	592.386067	986.170591	-1.287020	725.289511	853.911973	-98.724983	658.399657	1046.764224	-600.760873	734.500640	860.702035	-514.382006	200.465193	1205.027802	-350.601715	345.012008	1149.217139	-466.360543	294.477599	1193.179438	-178.077239	371.484809	1107.547392	-428.696282	346.190322	1160.997327	-201.471864	212.827758	1236.488014	-311.778568	241.654455	1232.597506	-392.939749	265.691132	1129.045734	-141.633522	264.710641	1068.907550	-493.182644	350.027248	1088.276031	-129.750902	432.718663	1057.372757	-128.720603	488.659028	1001.195961	-97.740663	451.145139	1077.833333	-154.957877	593.353344	892.769255	-123.018243	588.233837	872.204841	-236.793598	551.662586	788.639458	-109.070459	514.327594	709.801720	-128.604051	445.964835	657.045936	-126.993628	527.733215	702.769417	-166.249155	360.991772	565.357556	-135.833306	370.876070	584.139323	-215.774210	273.415408	547.672986	-173.384135	534.875885	437.463514	-191.575381	431.558135	458.039920	-121.907112	455.550541	465.789346	-231.364707	330.356936	945.115706	-506.190307	371.013578	867.849648	-505.487850	403.731280	875.446436	-491.590735	366.524066	779.293859	-508.871590	384.152187	680.573950	-490.987892	383.669189	647.601059	-391.471943	334.182642	590.056609	-513.736017	310.743229	508.350152	-499.565526	246.052969	444.908841	-501.899072	329.320603	500.250467	-463.686049	182.171846	357.478959	-489.030981	198.951242	344.979685	-413.494064	108.081000	366.162279	-445.055242	282.363248	136.875865	-436.289221	197.385637	200.083881	-502.215986	-125.883568	872.985589	-306.321319	37.204082	87.630414	-514.015450	33.084070	84.252829	-113.980985	
1255	6.2750	684.851397	1233.577455	-49.393108	769.141199	1202.962107	-384.679424	729.043954	1258.435846	-219.331555	654.392207	1135.645988	-218.189716	588.108313	983.678159	-2.852091	724.736674	854.374318	-98.620384	661.425655	1047.272820	-600.504857	734.698893	860.191996	-514.098802	201.454781	1208.087831	-351.104087	346.035381	1151.776756	-466.582274	294.088099	1192.670088	-178.492612	372.130940	1109.429072	-429.653253	346.025059	1160.595807	-201.853127	213.361348	1240.264663	-312.143815	241.502807	1236.688848	-392.667022	264.605185	1128.553489	-142.890086	266.427292	1071.926684	-495.180598	348.384106	1085.318901	-130.155540	430.573395	1053.147517	-128.059811	484.859534	995.333830	-96.227502	449.735083	1073.504372	-153.864663	587.485387	884.591115	-121.126673	583.015804	864.987195	-234.536896	546.924663	779.061762	-108.007209	506.751667	698.499706	-130.553876	443.865365	645.563713	-127.103944	524.840361	693.965356	-165.491302	361.152128	553.522498	-136.713547	371.352819	572.341912	-216.361225	273.771485	532.212893	-174.423828	541.105607	434.547629	-190.220542	436.706925	449.168318	-121.789844	460.687372	458.916117	-230.683746	334.278208	948.223066	-506.831667	376.446230	871.774146	-505.755759	408.952671	879.931253	-491.711233	373.698333	783.180434	-509.223205	392.079646	684.334417	-491.585813	390.927616	651.253999	-391.730980	340.294117	594.240757	-514.239075	314.189021	513.556679	-500.238948	247.064340	452.337475	-502.471276	331.776327	505.179347	-463.576050	178.694591	366.413563	-489.767230	195.122371	353.449486	-413.793977	104.447471	376.185103	-445.132556	274.384554	143.999621	-436.270983	190.327956	208.243358	-502.226738	-125.768287	873.143557	-305.856834	37.173987	87.924891	-513.920162	33.079058	84.303166	-113.938604	
